<svg width="98" height="94" viewBox="0 0 98 94" fill="none" xmlns="http://www.w3.org/2000/svg">
<path d="M12.5267 51.9466L20.9212 34.6641C20.9212 34.6641 13.576 38.0091 12.002 41.9116C10.428 45.8141 10.9271 49.4038 12.002 51.9466" stroke="#499A18" stroke-linecap="round" stroke-linejoin="round"/>
<path d="M11.9965 51.9925C11.9965 51.9925 37.7102 22.3991 29.3157 35.2216C20.9212 48.0441 30.1707 37.6314 25.4973 45.0678C20.824 52.5041 11.9965 51.9925 11.9965 51.9925Z" stroke="#499A18" stroke-linejoin="round"/>
<path d="M36.9264 40.8414C38.2811 40.8414 39.2837 41.0654 39.9344 41.5134C40.5957 41.9507 40.9264 42.7294 40.9264 43.8494C40.9264 44.9694 40.6011 45.86 39.9504 46.5214C39.2997 47.172 38.2491 47.4974 36.7984 47.4974H35.4544L35.4064 50.9694L36.6544 51.0814C36.6544 51.38 36.5637 51.7 36.3824 52.0414H32.7824L32.7344 51.4974C33.1824 51.3267 33.6411 51.1987 34.1104 51.1134C34.0464 46.9534 33.9931 43.86 33.9504 41.8334C33.6624 41.78 33.1931 41.652 32.5424 41.4494L32.6224 40.8414H36.9264ZM36.6384 46.4574C37.5557 46.4467 38.2544 46.2174 38.7344 45.7694C39.2144 45.3107 39.4544 44.708 39.4544 43.9614C39.4544 43.2147 39.2197 42.6974 38.7504 42.4094C38.2811 42.1107 37.5291 41.9614 36.4944 41.9614C36.3024 41.9614 35.9771 41.9667 35.5184 41.9774C35.5184 41.988 35.5024 43.4867 35.4704 46.4734L36.6384 46.4574ZM43.9855 40.1534C44.3162 40.1534 44.5508 40.164 44.6895 40.1854C44.6895 40.5587 44.6202 40.9854 44.4815 41.4654C44.3855 47.7587 44.3375 50.9214 44.3375 50.9534L45.6815 51.0814C45.6815 51.38 45.5908 51.7 45.4095 52.0414H41.7295L41.6815 51.4814C42.1722 51.3107 42.6522 51.1827 43.1215 51.0974L42.9615 41.4174C42.3748 41.3854 41.9055 41.3214 41.5535 41.2254L41.6175 40.3934C42.1615 40.2334 42.9508 40.1534 43.9855 40.1534ZM52.9763 46.8094L52.8963 50.9374C53.3549 50.9694 53.8136 51.044 54.2723 51.1614L54.2403 51.7214C54.0696 51.8067 53.7603 51.9027 53.3123 52.0094C52.8749 52.1054 52.4429 52.1534 52.0163 52.1534C51.8243 51.7694 51.7176 51.4014 51.6963 51.0494C50.4803 51.8494 49.6269 52.2494 49.1363 52.2494C48.3789 52.2494 47.7709 52.0467 47.3123 51.6414C46.8536 51.236 46.6243 50.6707 46.6243 49.9454C46.6243 48.2707 47.6483 47.4067 49.6963 47.3534C50.8909 47.3214 51.4936 47.3054 51.5043 47.3054L51.4883 46.7614C51.4669 46.0254 51.3283 45.4974 51.0723 45.1774C50.8163 44.8467 50.3576 44.6814 49.6963 44.6814C49.4189 44.6814 49.1203 44.7454 48.8003 44.8734L48.4163 46.4734C48.3629 46.484 48.2723 46.4894 48.1443 46.4894L47.4883 46.4414C47.3176 45.9827 47.2269 45.348 47.2163 44.5374C47.4189 44.4307 47.8829 44.2707 48.6083 44.0574C49.3336 43.8334 49.7976 43.7214 50.0003 43.7214C51.0883 43.7214 51.8563 43.9614 52.3043 44.4414C52.7523 44.9214 52.9763 45.7107 52.9763 46.8094ZM49.4883 51.1614C49.7976 51.1614 50.5123 50.8147 51.6323 50.1214L51.5523 48.1214C50.8269 48.1854 50.2189 48.244 49.7283 48.2974C49.2376 48.3507 48.8429 48.4947 48.5443 48.7294C48.2456 48.9534 48.0963 49.3107 48.0963 49.8014C48.0963 50.708 48.5603 51.1614 49.4883 51.1614ZM60.1613 43.7214C61.1853 43.7214 61.9266 43.9774 62.3853 44.4894C62.8439 44.9907 63.0733 45.7587 63.0733 46.7934C63.0733 47.092 63.0306 48.4787 62.9453 50.9534L64.2893 51.0814C64.2893 51.38 64.1986 51.7 64.0173 52.0414H60.3373L60.2893 51.4814C60.7799 51.3107 61.2599 51.1827 61.7293 51.0974C61.6653 48.3027 61.6066 46.7507 61.5533 46.4414C61.5106 46.1214 61.4359 45.844 61.3293 45.6094C61.2226 45.3747 61.0626 45.2094 60.8493 45.1134C60.6359 45.0174 60.3533 44.9694 60.0013 44.9694C59.2973 44.9694 58.6146 45.14 57.9533 45.4814C57.8893 47.9134 57.8466 49.7374 57.8253 50.9534L59.1693 51.0814C59.1693 51.38 59.0786 51.7 58.8973 52.0414H55.2173L55.1693 51.4814C55.6599 51.3107 56.1399 51.1827 56.6093 51.0974C56.5453 48.388 56.4919 46.3827 56.4493 45.0814C55.8626 45.0494 55.3933 44.9854 55.0413 44.8894L55.1053 44.0574C55.6813 43.8974 56.5186 43.8174 57.6173 43.8174C57.7453 44.0094 57.8413 44.2867 57.9053 44.6494C58.3639 44.404 58.8226 44.1907 59.2813 44.0094C59.7506 43.8174 60.0439 43.7214 60.1613 43.7214ZM66.2126 51.0494L66.0846 45.0174H64.8526L64.8046 44.4574C64.9113 44.3827 65.2206 44.244 65.7326 44.0414L67.0446 41.9934C67.258 42.0147 67.4233 42.068 67.5406 42.1534L67.5246 43.9134C68.3246 43.9134 68.9806 43.9667 69.4926 44.0734C69.4926 44.3614 69.402 44.676 69.2206 45.0174H67.4926C67.4713 46.2974 67.45 48.2387 67.4286 50.8414C68.026 50.8734 68.6233 50.98 69.2206 51.1614L69.2046 51.7214C69.0553 51.8174 68.6713 51.9294 68.0526 52.0574C67.4446 52.1854 66.9433 52.2494 66.5486 52.2494C66.4953 52.164 66.426 51.9827 66.3406 51.7054C66.2553 51.4174 66.2126 51.1987 66.2126 51.0494ZM71.9191 51.0174C72.2925 51.1774 72.7458 51.2574 73.2791 51.2574C73.8231 51.2574 74.2498 51.156 74.5591 50.9534C74.8685 50.7507 75.0231 50.4734 75.0231 50.1214C75.0231 49.7694 74.8791 49.476 74.5911 49.2414C74.3031 49.0067 73.9511 48.7987 73.5351 48.6174C73.1191 48.436 72.7031 48.244 72.2871 48.0414C71.8711 47.8387 71.5191 47.572 71.2311 47.2414C70.9431 46.9107 70.7991 46.5267 70.7991 46.0894C70.7991 45.3534 71.0445 44.7774 71.5351 44.3614C72.0258 43.9347 72.7031 43.7214 73.5671 43.7214C74.4418 43.7214 75.2631 43.9187 76.0311 44.3134C76.0418 44.42 76.0471 44.708 76.0471 45.1774C76.0471 45.636 75.9991 46.0307 75.9031 46.3614C75.6471 46.4467 75.3431 46.4894 74.9911 46.4894L74.4631 44.8574C74.2285 44.74 73.9085 44.6814 73.5031 44.6814C73.1085 44.6814 72.7938 44.788 72.5591 45.0014C72.3245 45.204 72.2071 45.4654 72.2071 45.7854C72.2071 46.0947 72.3511 46.3667 72.6391 46.6014C72.9378 46.836 73.2951 47.0494 73.7111 47.2414C74.1271 47.4227 74.5431 47.62 74.9591 47.8334C75.3751 48.036 75.7271 48.308 76.0151 48.6494C76.3138 48.98 76.4631 49.364 76.4631 49.8014C76.4631 50.5694 76.1645 51.172 75.5671 51.6094C74.9805 52.036 74.2551 52.2494 73.3911 52.2494C72.9218 52.2494 72.4205 52.1747 71.8871 52.0254C71.3538 51.8654 70.9058 51.6627 70.5431 51.4174C70.5431 50.7027 70.6071 50.068 70.7351 49.5134C70.9805 49.4707 71.3111 49.4494 71.7271 49.4494L71.9191 51.0174Z" fill="black"/>
</svg>
